<?xml version="1.0" standalone="no"?>
<!DOCTYPE svg PUBLIC "-//W3C//DTD SVG 20010904//EN"
 "http://www.w3.org/TR/2001/REC-SVG-20010904/DTD/svg10.dtd">
<svg version="1.0" xmlns="http://www.w3.org/2000/svg"
 width="32.000000pt" height="32.000000pt" viewBox="0 0 32.000000 32.000000"
 preserveAspectRatio="xMidYMid meet">

<g transform="translate(0.000000,32.000000) scale(0.100000,-0.100000)"
fill="#000000" stroke="none">
<path d="M5 160 c0 -113 1 -120 20 -120 19 0 20 7 20 120 0 113 -1 120 -20
120 -19 0 -20 -7 -20 -120z"/>
<path d="M145 159 l0 -121 54 4 c47 4 59 10 88 41 74 81 9 197 -109 197 l-33
0 0 -121z m111 58 c21 -25 25 -38 20 -66 -6 -38 -40 -78 -71 -83 -18 -3 -20 3
-23 81 -2 46 -1 90 2 97 7 19 43 5 72 -29z"/>
</g>
</svg>
